<svg width="334" height="322" viewBox="0 0 334 322" fill="none" xmlns="http://www.w3.org/2000/svg">
<g clip-path="url(#clip0_1_1658)">
<path d="M154.189 164.99C165.94 122.299 150.944 80.8838 120.694 72.4876C90.4446 64.0914 56.3958 91.8932 44.6443 134.585C33.9902 173.29 45.3217 210.944 70.0733 223.896L64.9095 235.896L84.9841 241.468L86.6909 228.509C114.553 230.16 143.535 203.695 154.189 164.99Z" fill="#F2BD41"/>
<path d="M57.5971 160.021L50.0133 157.916C51.9873 140.919 56.5784 124.24 63.5779 108.638L71.1618 110.743C63.1896 126.87 58.668 143.296 57.5971 160.021Z" fill="white"/>
<path d="M89.7802 229.279L67.0287 222.964L65.4328 228.761L88.1844 235.076L89.7802 229.279Z" fill="#3F3D56"/>
<path d="M253.512 216.915C267.892 175.07 255.641 132.351 226.15 121.5C196.659 110.649 161.095 135.775 146.716 177.62C133.679 215.557 142.532 254.212 166.276 269.186L160.387 280.799L179.958 288L182.477 275.147C210.027 279.046 240.476 254.852 253.512 216.915Z" fill="#735A1F"/>
<path d="M157.955 204.159L150.561 201.438C153.601 184.56 159.219 168.212 167.159 153.137L174.553 155.857C165.614 171.38 160.081 187.481 157.955 204.159Z" fill="white"/>
<path d="M185.494 276.168L163.313 268.007L161.361 273.689L183.541 281.85L185.494 276.168Z" fill="#3F3D56"/>
<path d="M173.282 273.079L-75.8925 539.088L-74.138 541.184L175.037 275.175L173.282 273.079Z" fill="#3F3D56"/>
<path d="M285.195 270.298C312.867 237.262 317.161 191.414 294.785 167.894C272.409 144.374 231.836 152.087 204.164 185.123C179.075 215.074 173.204 255.555 189.001 280.382L179.633 288.695L194.483 304.304L201.293 293.303C224.415 309.385 260.106 300.249 285.195 270.298Z" fill="#D9A93B"/>
<path d="M204.724 215.239L199.114 209.343C207.821 194.776 218.632 181.869 231.056 171.21L236.666 177.106C223.194 187.739 212.547 200.45 204.724 215.239Z" fill="white"/>
<path d="M203.615 295.624L186.785 277.934L183.027 282.421L199.857 300.111L203.615 295.624Z" fill="#3F3D56"/>
<path d="M191.751 288.804L-74.0635 533.158L-72.4721 535.415L193.343 291.062L191.751 288.804Z" fill="#3F3D56"/>
<path d="M79.073 229.189L-72.5461 572.81L-70.1873 573.987L81.4318 230.366L79.073 229.189Z" fill="#3F3D56"/>
</g>
<defs>
<clipPath id="clip0_1_1658">
<rect width="500" height="702" fill="white" transform="translate(-149.827) rotate(15)"/>
</clipPath>
</defs>
</svg>
