<svg width="333" height="317" viewBox="0 0 333 317" fill="none" xmlns="http://www.w3.org/2000/svg">
<g clip-path="url(#clip0_2_1724)">
<path d="M179.158 164.99C167.407 122.299 182.402 80.8839 212.652 72.4876C242.902 64.0914 276.951 91.8932 288.702 134.585C299.357 173.29 288.025 210.944 263.273 223.896L268.437 235.896L248.363 241.468L246.656 228.509C218.794 230.16 189.812 203.695 179.158 164.99Z" fill="#F2BD41"/>
<path d="M275.75 160.021L283.333 157.916C281.359 140.919 276.768 124.24 269.769 108.638L262.185 110.743C270.157 126.87 274.679 143.296 275.75 160.021Z" fill="white"/>
<path d="M243.567 229.279L266.318 222.964L267.914 228.761L245.162 235.076L243.567 229.279Z" fill="#3F3D56"/>
<path d="M79.8343 216.915C65.455 175.07 77.7057 132.351 107.197 121.5C136.688 110.649 172.252 135.775 186.631 177.62C199.667 215.557 190.815 254.212 167.071 269.186L172.959 280.799L153.388 288L150.87 275.147C123.32 279.046 92.8707 254.852 79.8343 216.915Z" fill="#735A1F"/>
<path d="M175.392 204.159L182.786 201.438C179.745 184.56 174.128 168.212 166.188 153.137L158.794 155.857C167.733 171.38 173.265 187.481 175.392 204.159Z" fill="white"/>
<path d="M147.853 276.168L170.033 268.007L171.986 273.689L149.805 281.85L147.853 276.168Z" fill="#3F3D56"/>
<path d="M160.064 273.079L409.239 539.088L407.485 541.184L158.31 275.176L160.064 273.079Z" fill="#3F3D56"/>
<path d="M48.1518 270.298C20.4793 237.262 16.1858 191.414 38.5619 167.894C60.938 144.374 101.511 152.088 129.183 185.123C154.271 215.074 160.142 255.555 144.345 280.382L153.713 288.695L138.864 304.304L132.053 293.303C108.931 309.385 73.2402 300.249 48.1518 270.298Z" fill="#D9A93B"/>
<path d="M128.623 215.239L134.233 209.343C125.526 194.776 114.715 181.869 102.29 171.21L96.6805 177.106C110.153 187.739 120.8 200.45 128.623 215.239Z" fill="white"/>
<path d="M129.732 295.624L146.561 277.934L150.319 282.421L133.49 300.111L129.732 295.624Z" fill="#3F3D56"/>
<path d="M141.595 288.804L407.41 533.158L405.819 535.415L140.004 291.062L141.595 288.804Z" fill="#3F3D56"/>
<path d="M254.274 229.189L405.893 572.81L403.534 573.987L251.915 230.366L254.274 229.189Z" fill="#3F3D56"/>
</g>
<defs>
<clipPath id="clip0_2_1724">
<rect width="500" height="702" fill="white" transform="matrix(-0.965926 0.258819 0.258819 0.965926 483.173 0)"/>
</clipPath>
</defs>
</svg>
